<svg width="89" height="27" viewBox="0 0 89 27" fill="none" xmlns="http://www.w3.org/2000/svg">
<path d="M16.7383 21.8867V26H3.85352V21.8867H16.7383ZM5.55859 0.40625V26H0.285156V0.40625H5.55859ZM39.625 12.6055V13.8184C39.625 15.7637 39.3613 17.5098 38.834 19.0566C38.3066 20.6035 37.5625 21.9219 36.6016 23.0117C35.6406 24.0898 34.4922 24.916 33.1562 25.4902C31.832 26.0645 30.3613 26.3516 28.7441 26.3516C27.1387 26.3516 25.668 26.0645 24.332 25.4902C23.0078 24.916 21.8594 24.0898 20.8867 23.0117C19.9141 21.9219 19.1582 20.6035 18.6191 19.0566C18.0918 17.5098 17.8281 15.7637 17.8281 13.8184V12.6055C17.8281 10.6484 18.0918 8.90234 18.6191 7.36719C19.1465 5.82031 19.8906 4.50195 20.8516 3.41211C21.8242 2.32227 22.9727 1.49023 24.2969 0.916016C25.6328 0.341797 27.1035 0.0546875 28.709 0.0546875C30.3262 0.0546875 31.7969 0.341797 33.1211 0.916016C34.457 1.49023 35.6055 2.32227 36.5664 3.41211C37.5391 4.50195 38.2891 5.82031 38.8164 7.36719C39.3555 8.90234 39.625 10.6484 39.625 12.6055ZM34.2988 13.8184V12.5703C34.2988 11.2109 34.1758 10.0156 33.9297 8.98438C33.6836 7.95312 33.3203 7.08594 32.8398 6.38281C32.3594 5.67969 31.7734 5.15234 31.082 4.80078C30.3906 4.4375 29.5996 4.25586 28.709 4.25586C27.8184 4.25586 27.0273 4.4375 26.3359 4.80078C25.6562 5.15234 25.0762 5.67969 24.5957 6.38281C24.127 7.08594 23.7695 7.95312 23.5234 8.98438C23.2773 10.0156 23.1543 11.2109 23.1543 12.5703V13.8184C23.1543 15.166 23.2773 16.3613 23.5234 17.4043C23.7695 18.4355 24.1328 19.3086 24.6133 20.0234C25.0938 20.7266 25.6797 21.2598 26.3711 21.623C27.0625 21.9863 27.8535 22.168 28.7441 22.168C29.6348 22.168 30.4258 21.9863 31.1172 21.623C31.8086 21.2598 32.3887 20.7266 32.8574 20.0234C33.3262 19.3086 33.6836 18.4355 33.9297 17.4043C34.1758 16.3613 34.2988 15.166 34.2988 13.8184ZM63.707 12.623V22.7656C63.3086 23.2461 62.6934 23.7676 61.8613 24.3301C61.0293 24.8809 59.957 25.3555 58.6445 25.7539C57.332 26.1523 55.7441 26.3516 53.8809 26.3516C52.2285 26.3516 50.7227 26.082 49.3633 25.543C48.0039 24.9922 46.832 24.1895 45.8477 23.1348C44.875 22.0801 44.125 20.791 43.5977 19.2676C43.0703 17.7324 42.8066 15.9805 42.8066 14.0117V12.4121C42.8066 10.4434 43.0586 8.69141 43.5625 7.15625C44.0781 5.62109 44.8105 4.32617 45.7598 3.27148C46.709 2.2168 47.8398 1.41406 49.1523 0.863281C50.4648 0.3125 51.9238 0.0371094 53.5293 0.0371094C55.7559 0.0371094 57.584 0.400391 59.0137 1.12695C60.4434 1.8418 61.5332 2.83789 62.2832 4.11523C63.0449 5.38086 63.5137 6.83398 63.6895 8.47461H58.5742C58.4453 7.60742 58.1992 6.85156 57.8359 6.20703C57.4727 5.5625 56.9512 5.05859 56.2715 4.69531C55.6035 4.33203 54.7363 4.15039 53.6699 4.15039C52.791 4.15039 52.0059 4.33203 51.3145 4.69531C50.6348 5.04688 50.0605 5.56836 49.5918 6.25977C49.123 6.95117 48.7656 7.80664 48.5195 8.82617C48.2734 9.8457 48.1504 11.0293 48.1504 12.377V14.0117C48.1504 15.3477 48.2793 16.5312 48.5371 17.5625C48.7949 18.582 49.1758 19.4434 49.6797 20.1465C50.1953 20.8379 50.8281 21.3594 51.5781 21.7109C52.3281 22.0625 53.2012 22.2383 54.1973 22.2383C55.0293 22.2383 55.7207 22.168 56.2715 22.0273C56.834 21.8867 57.2852 21.7168 57.625 21.5176C57.9766 21.3066 58.2461 21.1074 58.4336 20.9199V16.3848H53.6172V12.623H63.707ZM88.9844 12.6055V13.8184C88.9844 15.7637 88.7207 17.5098 88.1934 19.0566C87.666 20.6035 86.9219 21.9219 85.9609 23.0117C85 24.0898 83.8516 24.916 82.5156 25.4902C81.1914 26.0645 79.7207 26.3516 78.1035 26.3516C76.498 26.3516 75.0273 26.0645 73.6914 25.4902C72.3672 24.916 71.2188 24.0898 70.2461 23.0117C69.2734 21.9219 68.5176 20.6035 67.9785 19.0566C67.4512 17.5098 67.1875 15.7637 67.1875 13.8184V12.6055C67.1875 10.6484 67.4512 8.90234 67.9785 7.36719C68.5059 5.82031 69.25 4.50195 70.2109 3.41211C71.1836 2.32227 72.332 1.49023 73.6562 0.916016C74.9922 0.341797 76.4629 0.0546875 78.0684 0.0546875C79.6855 0.0546875 81.1562 0.341797 82.4805 0.916016C83.8164 1.49023 84.9648 2.32227 85.9258 3.41211C86.8984 4.50195 87.6484 5.82031 88.1758 7.36719C88.7148 8.90234 88.9844 10.6484 88.9844 12.6055ZM83.6582 13.8184V12.5703C83.6582 11.2109 83.5352 10.0156 83.2891 8.98438C83.043 7.95312 82.6797 7.08594 82.1992 6.38281C81.7188 5.67969 81.1328 5.15234 80.4414 4.80078C79.75 4.4375 78.959 4.25586 78.0684 4.25586C77.1777 4.25586 76.3867 4.4375 75.6953 4.80078C75.0156 5.15234 74.4355 5.67969 73.9551 6.38281C73.4863 7.08594 73.1289 7.95312 72.8828 8.98438C72.6367 10.0156 72.5137 11.2109 72.5137 12.5703V13.8184C72.5137 15.166 72.6367 16.3613 72.8828 17.4043C73.1289 18.4355 73.4922 19.3086 73.9727 20.0234C74.4531 20.7266 75.0391 21.2598 75.7305 21.623C76.4219 21.9863 77.2129 22.168 78.1035 22.168C78.9941 22.168 79.7852 21.9863 80.4766 21.623C81.168 21.2598 81.748 20.7266 82.2168 20.0234C82.6855 19.3086 83.043 18.4355 83.2891 17.4043C83.5352 16.3613 83.6582 15.166 83.6582 13.8184Z" fill="#0A2541"/>
</svg>
